<svg width="70" height="88" viewBox="0 0 70 88" fill="none" xmlns="http://www.w3.org/2000/svg">
<g filter="url(#filter0_d_350_116)">
<path d="M46.7586 80.0001L34.438 74.5361L22.1118 80.0001V50.3348H46.7586V80.0001Z" fill="url(#paint0_linear_350_116)"/>
<path d="M34.438 74.1414L22.4727 79.4474V50.6957H46.3977V79.4474L34.438 74.1414Z" fill="url(#paint1_linear_350_116)"/>
<g style="mix-blend-mode:multiply">
<path d="M24.8635 50.3348H22.1118V80.0001L24.8635 78.7821V50.3348Z" fill="url(#paint2_linear_350_116)"/>
<path d="M44.0122 50.3348V78.7821L46.7583 80.0001V50.3348H44.0122Z" fill="url(#paint3_linear_350_116)"/>
</g>
<path d="M41.051 62.262C56.418 58.6096 65.9145 43.1913 62.262 27.8243C58.6096 12.4573 43.1913 2.96083 27.8244 6.61326C12.4574 10.2657 2.96088 25.684 6.61331 41.0509C10.2657 56.4179 25.684 65.9144 41.051 62.262Z" fill="url(#paint4_linear_350_116)"/>
<path d="M60.8947 34.3435C60.8947 35.4318 60.8383 36.5031 60.7143 37.5576C60.5733 38.7417 60.359 39.9033 60.0658 41.0367C59.9418 41.5216 59.8064 42.0009 59.6542 42.4802C59.3723 43.3654 59.0508 44.2282 58.6787 45.0683C57.878 46.8896 56.8799 48.6094 55.7071 50.1883C54.7147 51.5303 53.5926 52.7764 52.369 53.8985C47.6776 58.2234 41.4186 60.8736 34.5394 60.9018C27.6489 60.9244 21.3618 58.3193 16.6422 54.0169C15.4298 52.9118 14.319 51.6994 13.3266 50.3856C11.4715 47.9384 10.0392 45.1585 9.12578 42.1531C8.69724 40.7491 8.38147 39.2999 8.19539 37.8057C8.06006 36.7343 7.98676 35.6461 7.98112 34.5352C7.93037 19.9197 19.7322 8.03897 34.3477 7.98259C48.9576 7.93184 60.844 19.728 60.9003 34.3435H60.8947Z" fill="#292C2B"/>
<path d="M60.258 40.4333C56.8522 55.0826 41.9829 63.9636 27.4689 60.0109C13.7951 56.2893 5.41031 42.2489 8.61873 28.4454C12.0245 13.7961 26.8938 4.92074 41.4078 8.86783C55.0816 12.5894 63.4664 26.6297 60.258 40.4333Z" stroke="url(#paint5_radial_350_116)" stroke-miterlimit="10"/>
<path d="M39.8987 52.3557C49.7951 49.3414 55.3742 38.8752 52.3599 28.9788C49.3456 19.0824 38.8794 13.5034 28.983 16.5177C19.0866 19.532 13.5075 29.9982 16.5218 39.8946C19.5361 49.791 30.0023 55.37 39.8987 52.3557Z" fill="url(#paint6_linear_350_116)"/>
<path d="M50.5189 43.1919C55.2578 34.3724 51.9498 23.3811 43.1302 18.6422C34.3107 13.9033 23.3194 17.2113 18.5805 26.0308C13.8416 34.8504 17.1496 45.8416 25.9692 50.5805C34.7887 55.3194 45.78 52.0114 50.5189 43.1919Z" fill="url(#paint7_linear_350_116)"/>
<path d="M40.9677 53.188L41.5598 54.7161L43.1894 54.8063L41.9207 55.8382L42.3379 57.417L40.9677 56.5317L39.5919 57.417L40.0148 55.8382L38.7461 54.8063L40.3757 54.7161L40.9677 53.188Z" fill="url(#paint8_linear_350_116)"/>
<path d="M27.9028 53.188L28.4949 54.7161L30.1245 54.8063L28.8614 55.8382L29.2786 57.417L27.9028 56.5317L26.5326 57.417L26.9499 55.8382L25.6812 54.8063L27.3164 54.7161L27.9028 53.188Z" fill="url(#paint9_linear_350_116)"/>
<path d="M34.4377 53.9774L35.2271 56.0243L37.4206 56.1427L35.7177 57.5298L36.2816 59.6556L34.4377 58.4658L32.5939 59.6556L33.1521 57.5298L31.4492 56.1427L33.6427 56.0243L34.4377 53.9774Z" fill="url(#paint10_linear_350_116)"/>
<path d="M40.9677 11.3657L41.5598 12.8882L43.1894 12.984L41.9207 14.0159L42.3379 15.5947L40.9677 14.7095L39.5919 15.5947L40.0148 14.0159L38.7461 12.984L40.3757 12.8882L40.9677 11.3657Z" fill="url(#paint11_linear_350_116)"/>
<path d="M27.9028 11.3657L28.4949 12.8882L30.1245 12.984L28.8614 14.0159L29.2786 15.5947L27.9028 14.7095L26.5326 15.5947L26.9499 14.0159L25.6812 12.984L27.3164 12.8882L27.9028 11.3657Z" fill="url(#paint12_linear_350_116)"/>
<path d="M34.4377 8.94104L35.2271 10.9879L37.4206 11.1119L35.7177 12.4991L36.2816 14.6192L34.4377 13.4294L32.5939 14.6192L33.1521 12.4991L31.4492 11.1119L33.6427 10.9879L34.4377 8.94104Z" fill="url(#paint13_linear_350_116)"/>
<path d="M46.7586 80.0001L34.438 74.5361L22.1118 80.0001V50.3348H46.7586V80.0001Z" fill="url(#paint14_linear_350_116)"/>
<path d="M34.438 74.1414L22.4727 79.4474V50.6957H46.3977V79.4474L34.438 74.1414Z" fill="url(#paint15_linear_350_116)"/>
<g style="mix-blend-mode:multiply">
<path d="M24.8635 50.3348H22.1118V80.0001L24.8635 78.7821V50.3348Z" fill="url(#paint16_linear_350_116)"/>
<path d="M44.0122 50.3348V78.7821L46.7583 80.0001V50.3348H44.0122Z" fill="url(#paint17_linear_350_116)"/>
</g>
<path d="M41.051 62.262C56.418 58.6096 65.9145 43.1913 62.262 27.8243C58.6096 12.4573 43.1913 2.96083 27.8244 6.61326C12.4574 10.2657 2.96088 25.684 6.61331 41.0509C10.2657 56.4179 25.684 65.9144 41.051 62.262Z" fill="url(#paint18_linear_350_116)"/>
<path d="M60.8947 34.3435C60.8947 35.4318 60.8383 36.5031 60.7143 37.5576C60.5733 38.7417 60.359 39.9033 60.0658 41.0367C59.9418 41.5216 59.8064 42.0009 59.6542 42.4802C59.3723 43.3654 59.0508 44.2282 58.6787 45.0683C57.878 46.8896 56.8799 48.6094 55.7071 50.1883C54.7147 51.5303 53.5926 52.7764 52.369 53.8985C47.6776 58.2234 41.4186 60.8736 34.5394 60.9018C27.6489 60.9244 21.3618 58.3193 16.6422 54.0169C15.4298 52.9118 14.319 51.6994 13.3266 50.3856C11.4715 47.9384 10.0392 45.1585 9.12578 42.1531C8.69724 40.7491 8.38147 39.2999 8.19539 37.8057C8.06006 36.7343 7.98676 35.6461 7.98112 34.5352C7.93037 19.9197 19.7322 8.03897 34.3477 7.98259C48.9576 7.93184 60.844 19.728 60.9003 34.3435H60.8947Z" fill="#292C2B"/>
<path d="M60.258 40.4333C56.8522 55.0826 41.9829 63.9636 27.4689 60.0109C13.7951 56.2893 5.41031 42.2489 8.61873 28.4454C12.0245 13.7961 26.8938 4.92074 41.4078 8.86783C55.0816 12.5894 63.4664 26.6297 60.258 40.4333Z" stroke="url(#paint19_radial_350_116)" stroke-miterlimit="10"/>
<path d="M39.8987 52.3557C49.7951 49.3414 55.3742 38.8752 52.3599 28.9788C49.3456 19.0824 38.8794 13.5034 28.983 16.5177C19.0866 19.532 13.5075 29.9982 16.5218 39.8946C19.5361 49.791 30.0023 55.37 39.8987 52.3557Z" fill="url(#paint20_linear_350_116)"/>
<path d="M50.5189 43.1919C55.2578 34.3724 51.9498 23.3811 43.1302 18.6422C34.3107 13.9033 23.3194 17.2113 18.5805 26.0308C13.8416 34.8504 17.1496 45.8416 25.9692 50.5805C34.7887 55.3194 45.78 52.0114 50.5189 43.1919Z" fill="url(#paint21_linear_350_116)"/>
<path d="M40.9677 53.188L41.5598 54.7161L43.1894 54.8063L41.9207 55.8382L42.3379 57.417L40.9677 56.5317L39.5919 57.417L40.0148 55.8382L38.7461 54.8063L40.3757 54.7161L40.9677 53.188Z" fill="url(#paint22_linear_350_116)"/>
<path d="M27.9028 53.188L28.4949 54.7161L30.1245 54.8063L28.8614 55.8382L29.2786 57.417L27.9028 56.5317L26.5326 57.417L26.9499 55.8382L25.6812 54.8063L27.3164 54.7161L27.9028 53.188Z" fill="url(#paint23_linear_350_116)"/>
<path d="M34.4377 53.9774L35.2271 56.0243L37.4206 56.1427L35.7177 57.5298L36.2816 59.6556L34.4377 58.4658L32.5939 59.6556L33.1521 57.5298L31.4492 56.1427L33.6427 56.0243L34.4377 53.9774Z" fill="url(#paint24_linear_350_116)"/>
<path d="M40.9677 11.3657L41.5598 12.8882L43.1894 12.984L41.9207 14.0159L42.3379 15.5947L40.9677 14.7095L39.5919 15.5947L40.0148 14.0159L38.7461 12.984L40.3757 12.8882L40.9677 11.3657Z" fill="url(#paint25_linear_350_116)"/>
<path d="M27.9028 11.3657L28.4949 12.8882L30.1245 12.984L28.8614 14.0159L29.2786 15.5947L27.9028 14.7095L26.5326 15.5947L26.9499 14.0159L25.6812 12.984L27.3164 12.8882L27.9028 11.3657Z" fill="url(#paint26_linear_350_116)"/>
<path d="M34.4377 8.94104L35.2271 10.9879L37.4206 11.1119L35.7177 12.4991L36.2816 14.6192L34.4377 13.4294L32.5939 14.6192L33.1521 12.4991L31.4492 11.1119L33.6427 10.9879L34.4377 8.94104Z" fill="url(#paint27_linear_350_116)"/>
<g clip-path="url(#clip0_350_116)">
<path d="M35.7957 36.7654C35.7744 36.9328 35.751 37.0948 35.7343 37.2581C35.6916 37.6821 35.6523 38.1068 35.6115 38.5314C35.5788 38.8744 35.5488 39.2174 35.5141 39.5604C35.4787 39.9116 35.438 40.2621 35.4033 40.6132C35.3713 40.9365 35.3466 41.2604 35.3145 41.5837C35.2805 41.9239 35.2378 42.2629 35.2044 42.6025C35.171 42.9427 35.1457 43.2837 35.1143 43.6239C35.0876 43.9105 35.0596 44.1976 35.0295 44.4842C34.9968 44.7938 34.7025 45.015 34.4442 45C34.1532 44.983 33.8602 44.9959 33.5685 44.9959C33.2348 44.9959 33.0179 44.804 32.9819 44.4658C32.9331 43.9996 32.8917 43.5321 32.845 43.0659C32.7923 42.5432 32.7356 42.0213 32.6828 41.4986C32.6461 41.1304 32.6154 40.7616 32.5794 40.3934C32.5453 40.0395 32.5073 39.6856 32.4726 39.3317C32.4172 38.7669 32.3738 38.2 32.3071 37.6365C32.219 36.8968 32.1129 36.159 32.0147 35.4207C32.0054 35.3478 31.9954 35.275 31.9894 35.2015C31.974 35.0293 31.91 34.8776 31.8325 34.7245C31.4634 33.997 31.1037 33.2647 30.7406 32.5345C30.2534 31.5545 29.7682 30.5738 29.2783 29.5952C29.1468 29.3325 29.0907 29.0684 29.2209 28.7921C29.377 28.4594 29.6454 28.2776 30.0038 28.2634C30.3568 28.2497 30.6218 28.4144 30.7833 28.7411C31.1564 29.4951 31.5315 30.2478 31.9053 31.0012C31.9173 31.0257 31.9286 31.0509 31.9433 31.0822C31.9914 31.0584 32.0354 31.0373 32.0788 31.0141C32.2577 30.9202 32.4532 30.9386 32.6428 30.9379C33.5245 30.9338 34.4055 30.9352 35.2872 30.9359C35.3679 30.9359 35.4487 30.9461 35.5288 30.9406C36.0167 30.908 36.4919 31.3034 36.5286 31.8553C36.5493 32.167 36.61 32.4759 36.6534 32.7856C36.7288 33.3218 36.8036 33.8588 36.881 34.3951C36.9377 34.7891 36.9938 35.1831 37.0579 35.5758C37.1627 36.2148 36.6861 36.747 36.0981 36.7647C36.0013 36.7675 35.9045 36.7647 35.7944 36.7647L35.7957 36.7654Z" fill="#292C2B"/>
<path d="M39.9284 30.9426C40.4483 30.9426 40.9682 30.9385 41.4882 30.944C42.0061 30.9494 42.3692 31.2856 42.4373 31.8049C42.488 32.1908 42.5401 32.5773 42.5954 32.9625C42.6609 33.4205 42.7303 33.8778 42.7977 34.3358C42.8624 34.7768 42.9238 35.2185 42.9912 35.6595C43.0239 35.8725 42.9672 36.0665 42.8658 36.2434C42.6729 36.5782 42.3805 36.7545 41.9954 36.7647C41.9233 36.7667 41.8506 36.7708 41.7785 36.764C41.7151 36.7579 41.6944 36.7872 41.6904 36.8436C41.6791 37.0043 41.6717 37.1655 41.6557 37.3255C41.5976 37.9039 41.5356 38.4824 41.4768 39.0609C41.4401 39.4229 41.4088 39.7863 41.372 40.1484C41.3186 40.6853 41.2613 41.2216 41.2085 41.7585C41.1718 42.1322 41.1398 42.5065 41.1051 42.8801C41.067 43.2877 41.0276 43.6954 40.9876 44.103C40.9729 44.2548 40.9569 44.4065 40.9342 44.5576C40.8988 44.7897 40.6592 44.9952 40.4276 44.9959C40.1193 44.9973 39.8103 44.9959 39.5019 44.9959C39.1475 44.9959 38.9219 44.7904 38.8879 44.4304C38.8298 43.8199 38.7771 43.2095 38.7183 42.5997C38.685 42.254 38.6436 41.9089 38.6095 41.5632C38.5555 41.0208 38.5054 40.4784 38.4527 39.9354C38.4173 39.5754 38.3786 39.216 38.3439 38.8567C38.2952 38.3511 38.2598 37.8434 38.1964 37.3391C38.1704 37.1336 38.2071 36.9648 38.2992 36.7851C38.4627 36.468 38.5355 36.1202 38.5328 35.7636C38.5314 35.5615 38.4921 35.3601 38.4634 35.1586C38.3953 34.6754 38.3245 34.1922 38.2538 33.7091C38.173 33.153 38.0936 32.5977 38.0095 32.0424C37.9641 31.7416 37.9081 31.4422 37.8627 31.1414C37.8587 31.1141 37.8874 31.0604 37.9114 31.0529C38.0396 31.0114 38.171 30.9528 38.3019 30.9501C38.8438 30.9385 39.3858 30.9454 39.9284 30.9454C39.9284 30.9447 39.9284 30.9433 39.9284 30.9426Z" fill="#292C2B"/>
<path d="M29.8602 36.7641C29.8329 37.0424 29.8062 37.3147 29.7781 37.5862C29.7421 37.9428 29.7047 38.2994 29.6693 38.6567C29.638 38.9772 29.6106 39.2978 29.5786 39.6183C29.5439 39.9695 29.5052 40.3206 29.4711 40.6718C29.4371 41.0202 29.4084 41.3693 29.3737 41.7178C29.3396 42.0581 29.2989 42.397 29.2649 42.7372C29.2322 43.0687 29.2048 43.4008 29.1734 43.7329C29.1481 43.9969 29.1281 44.2623 29.09 44.5244C29.05 44.8041 28.8137 44.9953 28.5334 44.9953C28.219 44.9953 27.9047 44.9953 27.591 44.9953C27.3066 44.9953 27.077 44.7741 27.0517 44.4876C27.015 44.0772 26.9696 43.6669 26.9295 43.2565C26.8755 42.7053 26.8241 42.1547 26.77 41.6034C26.7353 41.2523 26.6979 40.9011 26.6619 40.55C26.5985 39.9232 26.5351 39.2971 26.473 38.6703C26.4223 38.1558 26.3729 37.6413 26.3235 37.1268C26.3142 37.0315 26.3068 36.9349 26.3055 36.8389C26.3048 36.7729 26.2761 36.762 26.2181 36.7607C26.0766 36.7586 25.9317 36.7661 25.7949 36.7362C25.3717 36.6443 25.1281 36.3605 25.0173 35.9434C24.9726 35.7739 25.0187 35.6126 25.042 35.4486C25.1168 34.9116 25.1915 34.3754 25.2696 33.8391C25.325 33.4566 25.3871 33.0749 25.4425 32.6924C25.4879 32.3793 25.5279 32.0656 25.5693 31.7525C25.6027 31.4987 25.7175 31.2911 25.9197 31.1414C26.0932 31.0128 26.2875 30.9379 26.5091 30.9386C27.0844 30.942 27.6604 30.9393 28.2357 30.9373C28.3038 30.9373 28.3418 30.9658 28.3712 31.0257C28.9659 32.2283 29.5619 33.4308 30.1579 34.6333C30.27 34.8599 30.3795 35.0886 30.4963 35.3132C30.5771 35.4683 30.5777 35.6398 30.6058 35.8059C30.6438 36.0339 30.6832 36.2618 30.7232 36.4891C30.7339 36.5484 30.7105 36.5851 30.6625 36.6157C30.5103 36.7137 30.3415 36.7546 30.1646 36.762C30.0678 36.7661 29.9704 36.7627 29.8602 36.7627V36.7641Z" fill="#292C2B"/>
<path d="M38.2686 28.5798C38.3013 27.6236 39.0281 26.9097 39.9231 26.9091C40.8141 26.9091 41.5617 27.6264 41.569 28.5716C41.5764 29.4788 40.8742 30.2526 39.9458 30.2587C38.9587 30.2655 38.2946 29.4951 38.2686 28.5798Z" fill="#292C2B"/>
<path d="M32.3569 28.5703C32.3623 27.6944 33.0617 26.92 33.9801 26.9098C34.8905 26.9002 35.6514 27.6087 35.6534 28.5805C35.6554 29.5169 34.9553 30.2363 34.0375 30.2594C33.0924 30.2832 32.3609 29.5115 32.3569 28.571V28.5703Z" fill="#292C2B"/>
<path d="M28.8538 27.1132C27.9281 27.6188 27.3114 29.0031 27.9715 30.2539C27.4489 30.2253 26.8335 29.8973 26.5592 29.2304C26.2648 28.5151 26.4824 27.7012 27.0898 27.2425C27.6771 26.7988 28.3893 26.8437 28.8532 27.1139L28.8538 27.1132Z" fill="#292C2B"/>
<path d="M34.3346 24.3523C34.3346 24.683 34.3333 25.0131 34.3346 25.3438C34.3346 25.4663 34.3099 25.5745 34.2025 25.646C33.9949 25.7841 33.7253 25.6644 33.6805 25.4132C33.6705 25.3554 33.6639 25.2955 33.6632 25.2363C33.6619 24.649 33.6632 24.061 33.6632 23.4737C33.6632 23.3498 33.6839 23.2328 33.7626 23.1314C33.9348 22.9081 34.2278 22.9966 34.3046 23.1872C34.326 23.2402 34.3313 23.3022 34.332 23.3607C34.3346 23.6914 34.3333 24.0215 34.3333 24.3523H34.3346Z" fill="#292C2B"/>
<path d="M37.346 24.3869C37.3346 24.4203 37.3219 24.4856 37.2912 24.5401C36.9682 25.1131 36.6432 25.6854 36.3148 26.255C36.2787 26.3176 36.2214 26.3755 36.1599 26.4136C36.0251 26.4973 35.9243 26.4769 35.8069 26.3639C35.6814 26.2428 35.6467 26.1305 35.7188 25.9951C35.8776 25.6977 36.0465 25.4057 36.212 25.1117C36.3635 24.8422 36.5137 24.5714 36.6679 24.3039C36.7066 24.2365 36.7546 24.1719 36.8067 24.1147C36.9028 24.0085 37.0229 23.9949 37.1504 24.0467C37.2686 24.095 37.348 24.2243 37.3466 24.3869H37.346Z" fill="#292C2B"/>
<path d="M31.0007 24.0072C31.1368 24.0215 31.235 24.0787 31.3004 24.1944C31.5533 24.6422 31.8069 25.0893 32.0612 25.5364C32.1373 25.6705 32.2168 25.8038 32.2908 25.9393C32.4096 26.155 32.3115 26.3878 32.0773 26.4517C31.9651 26.4823 31.8664 26.4395 31.8003 26.3578C31.7115 26.2476 31.6381 26.123 31.5673 25.9998C31.2937 25.5221 31.022 25.043 30.7531 24.5625C30.6376 24.357 30.6716 24.193 30.8525 24.0712C30.8966 24.0412 30.9513 24.029 31.0014 24.0086L31.0007 24.0072Z" fill="#292C2B"/>
</g>
<g clip-path="url(#clip1_350_116)">
<path d="M35.7957 36.7654C35.7744 36.9328 35.751 37.0948 35.7343 37.2581C35.6916 37.6821 35.6523 38.1068 35.6115 38.5314C35.5788 38.8744 35.5488 39.2174 35.5141 39.5604C35.4787 39.9116 35.438 40.2621 35.4033 40.6132C35.3713 40.9365 35.3466 41.2604 35.3145 41.5837C35.2805 41.9239 35.2378 42.2629 35.2044 42.6025C35.171 42.9427 35.1457 43.2837 35.1143 43.6239C35.0876 43.9105 35.0596 44.1976 35.0295 44.4842C34.9968 44.7938 34.7025 45.015 34.4442 45C34.1532 44.983 33.8602 44.9959 33.5685 44.9959C33.2348 44.9959 33.0179 44.804 32.9819 44.4658C32.9331 43.9996 32.8917 43.5321 32.845 43.0659C32.7923 42.5432 32.7356 42.0213 32.6828 41.4986C32.6461 41.1304 32.6154 40.7616 32.5794 40.3934C32.5453 40.0395 32.5073 39.6856 32.4726 39.3317C32.4172 38.7669 32.3738 38.2 32.3071 37.6365C32.219 36.8968 32.1129 36.159 32.0147 35.4207C32.0054 35.3478 31.9954 35.275 31.9894 35.2015C31.974 35.0293 31.91 34.8776 31.8325 34.7245C31.4634 33.997 31.1037 33.2647 30.7406 32.5345C30.2534 31.5545 29.7682 30.5738 29.2783 29.5952C29.1468 29.3325 29.0907 29.0684 29.2209 28.7921C29.377 28.4594 29.6454 28.2776 30.0038 28.2634C30.3568 28.2497 30.6218 28.4144 30.7833 28.7411C31.1564 29.4951 31.5315 30.2478 31.9053 31.0012C31.9173 31.0257 31.9286 31.0509 31.9433 31.0822C31.9914 31.0584 32.0354 31.0373 32.0788 31.0141C32.2577 30.9202 32.4532 30.9386 32.6428 30.9379C33.5245 30.9338 34.4055 30.9352 35.2872 30.9359C35.3679 30.9359 35.4487 30.9461 35.5288 30.9406C36.0167 30.908 36.4919 31.3034 36.5286 31.8553C36.5493 32.167 36.61 32.4759 36.6534 32.7856C36.7288 33.3218 36.8036 33.8588 36.881 34.3951C36.9377 34.7891 36.9938 35.1831 37.0579 35.5758C37.1627 36.2148 36.6861 36.747 36.0981 36.7647C36.0013 36.7675 35.9045 36.7647 35.7944 36.7647L35.7957 36.7654Z" fill="#292C2B"/>
<path d="M39.9284 30.9426C40.4483 30.9426 40.9682 30.9385 41.4882 30.944C42.0061 30.9494 42.3692 31.2856 42.4373 31.8049C42.488 32.1908 42.5401 32.5773 42.5954 32.9625C42.6609 33.4205 42.7303 33.8778 42.7977 34.3358C42.8624 34.7768 42.9238 35.2185 42.9912 35.6595C43.0239 35.8725 42.9672 36.0665 42.8658 36.2434C42.6729 36.5782 42.3805 36.7545 41.9954 36.7647C41.9233 36.7667 41.8506 36.7708 41.7785 36.764C41.7151 36.7579 41.6944 36.7872 41.6904 36.8436C41.6791 37.0043 41.6717 37.1655 41.6557 37.3255C41.5976 37.9039 41.5356 38.4824 41.4768 39.0609C41.4401 39.4229 41.4088 39.7863 41.372 40.1484C41.3186 40.6853 41.2613 41.2216 41.2085 41.7585C41.1718 42.1322 41.1398 42.5065 41.1051 42.8801C41.067 43.2877 41.0276 43.6954 40.9876 44.103C40.9729 44.2548 40.9569 44.4065 40.9342 44.5576C40.8988 44.7897 40.6592 44.9952 40.4276 44.9959C40.1193 44.9973 39.8103 44.9959 39.5019 44.9959C39.1475 44.9959 38.9219 44.7904 38.8879 44.4304C38.8298 43.8199 38.7771 43.2095 38.7183 42.5997C38.685 42.254 38.6436 41.9089 38.6095 41.5632C38.5555 41.0208 38.5054 40.4784 38.4527 39.9354C38.4173 39.5754 38.3786 39.216 38.3439 38.8567C38.2952 38.3511 38.2598 37.8434 38.1964 37.3391C38.1704 37.1336 38.2071 36.9648 38.2992 36.7851C38.4627 36.468 38.5355 36.1202 38.5328 35.7636C38.5314 35.5615 38.4921 35.3601 38.4634 35.1586C38.3953 34.6754 38.3245 34.1922 38.2538 33.7091C38.173 33.153 38.0936 32.5977 38.0095 32.0424C37.9641 31.7416 37.9081 31.4422 37.8627 31.1414C37.8587 31.1141 37.8874 31.0604 37.9114 31.0529C38.0396 31.0114 38.171 30.9528 38.3019 30.9501C38.8438 30.9385 39.3858 30.9454 39.9284 30.9454C39.9284 30.9447 39.9284 30.9433 39.9284 30.9426Z" fill="#292C2B"/>
<path d="M29.8602 36.7641C29.8329 37.0424 29.8062 37.3147 29.7781 37.5862C29.7421 37.9428 29.7047 38.2994 29.6693 38.6567C29.638 38.9772 29.6106 39.2978 29.5786 39.6183C29.5439 39.9695 29.5052 40.3206 29.4711 40.6718C29.4371 41.0202 29.4084 41.3693 29.3737 41.7178C29.3396 42.0581 29.2989 42.397 29.2649 42.7372C29.2322 43.0687 29.2048 43.4008 29.1734 43.7329C29.1481 43.9969 29.1281 44.2623 29.09 44.5244C29.05 44.8041 28.8137 44.9953 28.5334 44.9953C28.219 44.9953 27.9047 44.9953 27.591 44.9953C27.3066 44.9953 27.077 44.7741 27.0517 44.4876C27.015 44.0772 26.9696 43.6669 26.9295 43.2565C26.8755 42.7053 26.8241 42.1547 26.77 41.6034C26.7353 41.2523 26.6979 40.9011 26.6619 40.55C26.5985 39.9232 26.5351 39.2971 26.473 38.6703C26.4223 38.1558 26.3729 37.6413 26.3235 37.1268C26.3142 37.0315 26.3068 36.9349 26.3055 36.8389C26.3048 36.7729 26.2761 36.762 26.2181 36.7607C26.0766 36.7586 25.9317 36.7661 25.7949 36.7362C25.3717 36.6443 25.1281 36.3605 25.0173 35.9434C24.9726 35.7739 25.0187 35.6126 25.042 35.4486C25.1168 34.9116 25.1915 34.3754 25.2696 33.8391C25.325 33.4566 25.3871 33.0749 25.4425 32.6924C25.4879 32.3793 25.5279 32.0656 25.5693 31.7525C25.6027 31.4987 25.7175 31.2911 25.9197 31.1414C26.0932 31.0128 26.2875 30.9379 26.5091 30.9386C27.0844 30.942 27.6604 30.9393 28.2357 30.9373C28.3038 30.9373 28.3418 30.9658 28.3712 31.0257C28.9659 32.2283 29.5619 33.4308 30.1579 34.6333C30.27 34.8599 30.3795 35.0886 30.4963 35.3132C30.5771 35.4683 30.5777 35.6398 30.6058 35.8059C30.6438 36.0339 30.6832 36.2618 30.7232 36.4891C30.7339 36.5484 30.7105 36.5851 30.6625 36.6157C30.5103 36.7137 30.3415 36.7546 30.1646 36.762C30.0678 36.7661 29.9704 36.7627 29.8602 36.7627V36.7641Z" fill="#292C2B"/>
<path d="M38.2686 28.5798C38.3013 27.6236 39.0281 26.9097 39.9231 26.9091C40.8141 26.9091 41.5617 27.6264 41.569 28.5716C41.5764 29.4788 40.8742 30.2526 39.9458 30.2587C38.9587 30.2655 38.2946 29.4951 38.2686 28.5798Z" fill="#292C2B"/>
<path d="M32.3569 28.5703C32.3623 27.6944 33.0617 26.92 33.9801 26.9098C34.8905 26.9002 35.6514 27.6087 35.6534 28.5805C35.6554 29.5169 34.9553 30.2363 34.0375 30.2594C33.0924 30.2832 32.3609 29.5115 32.3569 28.571V28.5703Z" fill="#292C2B"/>
<path d="M28.8538 27.1132C27.9281 27.6188 27.3114 29.0031 27.9715 30.2539C27.4489 30.2253 26.8335 29.8973 26.5592 29.2304C26.2648 28.5151 26.4824 27.7012 27.0898 27.2425C27.6771 26.7988 28.3893 26.8437 28.8532 27.1139L28.8538 27.1132Z" fill="#292C2B"/>
<path d="M34.3346 24.3523C34.3346 24.683 34.3333 25.0131 34.3346 25.3438C34.3346 25.4663 34.3099 25.5745 34.2025 25.646C33.9949 25.7841 33.7253 25.6644 33.6805 25.4132C33.6705 25.3554 33.6639 25.2955 33.6632 25.2363C33.6619 24.649 33.6632 24.061 33.6632 23.4737C33.6632 23.3498 33.6839 23.2328 33.7626 23.1314C33.9348 22.9081 34.2278 22.9966 34.3046 23.1872C34.326 23.2402 34.3313 23.3022 34.332 23.3607C34.3346 23.6914 34.3333 24.0215 34.3333 24.3523H34.3346Z" fill="#292C2B"/>
<path d="M37.346 24.3869C37.3346 24.4203 37.3219 24.4856 37.2912 24.5401C36.9682 25.1131 36.6432 25.6854 36.3148 26.255C36.2787 26.3176 36.2214 26.3755 36.1599 26.4136C36.0251 26.4973 35.9243 26.4769 35.8069 26.3639C35.6814 26.2428 35.6467 26.1305 35.7188 25.9951C35.8776 25.6977 36.0465 25.4057 36.212 25.1117C36.3635 24.8422 36.5137 24.5714 36.6679 24.3039C36.7066 24.2365 36.7546 24.1719 36.8067 24.1147C36.9028 24.0085 37.0229 23.9949 37.1504 24.0467C37.2686 24.095 37.348 24.2243 37.3466 24.3869H37.346Z" fill="#292C2B"/>
<path d="M31.0007 24.0072C31.1368 24.0215 31.235 24.0787 31.3004 24.1944C31.5533 24.6422 31.8069 25.0893 32.0612 25.5364C32.1373 25.6705 32.2168 25.8038 32.2908 25.9393C32.4096 26.155 32.3115 26.3878 32.0773 26.4517C31.9651 26.4823 31.8664 26.4395 31.8003 26.3578C31.7115 26.2476 31.6381 26.123 31.5673 25.9998C31.2937 25.5221 31.022 25.043 30.7531 24.5625C30.6376 24.357 30.6716 24.193 30.8525 24.0712C30.8966 24.0412 30.9513 24.029 31.0014 24.0086L31.0007 24.0072Z" fill="#292C2B"/>
</g>
</g>
<defs>
<filter id="filter0_d_350_116" x="3.13154" y="4.13167" width="66.6119" height="83.5683" filterUnits="userSpaceOnUse" color-interpolation-filters="sRGB">
<feFlood flood-opacity="0" result="BackgroundImageFix"/>
<feColorMatrix in="SourceAlpha" type="matrix" values="0 0 0 0 0 0 0 0 0 0 0 0 0 0 0 0 0 0 127 0" result="hardAlpha"/>
<feOffset dx="2" dy="3"/>
<feGaussianBlur stdDeviation="2.35"/>
<feComposite in2="hardAlpha" operator="out"/>
<feColorMatrix type="matrix" values="0 0 0 0 0 0 0 0 0 0 0 0 0 0 0 0 0 0 0.15 0"/>
<feBlend mode="normal" in2="BackgroundImageFix" result="effect1_dropShadow_350_116"/>
<feBlend mode="normal" in="SourceGraphic" in2="effect1_dropShadow_350_116" result="shape"/>
</filter>
<linearGradient id="paint0_linear_350_116" x1="20.86" y1="78.7483" x2="48.016" y2="51.5923" gradientUnits="userSpaceOnUse">
<stop stop-color="#BCBEC1"/>
<stop offset="0.41" stop-color="#EDEDEE"/>
<stop offset="0.75" stop-color="#BCBEC1"/>
<stop offset="0.95" stop-color="#838588"/>
</linearGradient>
<linearGradient id="paint1_linear_350_116" x1="21.266" y1="51.9024" x2="47.6044" y2="78.2407" gradientUnits="userSpaceOnUse">
<stop stop-color="#F8DA5B"/>
<stop offset="0.09" stop-color="#DBB748"/>
<stop offset="0.19" stop-color="#C29938"/>
<stop offset="0.27" stop-color="#B3862E"/>
<stop offset="0.33" stop-color="#AE802B"/>
<stop offset="0.34" stop-color="#B5882F"/>
<stop offset="0.42" stop-color="#E5C34E"/>
<stop offset="0.46" stop-color="#F8DA5B"/>
<stop offset="0.51" stop-color="#FAE682"/>
<stop offset="0.58" stop-color="#FDF9BD"/>
<stop offset="0.61" stop-color="#F7EFAF"/>
<stop offset="0.74" stop-color="#E5D384"/>
<stop offset="0.8" stop-color="#DEC874"/>
<stop offset="0.93" stop-color="#F3E9A6"/>
<stop offset="1" stop-color="#FDF9BD"/>
</linearGradient>
<linearGradient id="paint2_linear_350_116" x1="15.3848" y1="57.0618" x2="30.9815" y2="72.6641" gradientUnits="userSpaceOnUse">
<stop stop-color="#F8DA5B"/>
<stop offset="0.09" stop-color="#DBB748"/>
<stop offset="0.19" stop-color="#C29938"/>
<stop offset="0.27" stop-color="#B3862E"/>
<stop offset="0.33" stop-color="#AE802B"/>
<stop offset="0.34" stop-color="#B5882F"/>
<stop offset="0.42" stop-color="#E5C34E"/>
<stop offset="0.46" stop-color="#F8DA5B"/>
<stop offset="0.51" stop-color="#FAE682"/>
<stop offset="0.58" stop-color="#FDF9BD"/>
<stop offset="0.61" stop-color="#F7EFAF"/>
<stop offset="0.74" stop-color="#E5D384"/>
<stop offset="0.8" stop-color="#DEC874"/>
<stop offset="0.93" stop-color="#F3E9A6"/>
<stop offset="1" stop-color="#FDF9BD"/>
</linearGradient>
<linearGradient id="paint3_linear_350_116" x1="37.5841" y1="56.7573" x2="53.7954" y2="72.9686" gradientUnits="userSpaceOnUse">
<stop stop-color="#F8DA5B"/>
<stop offset="0.09" stop-color="#DBB748"/>
<stop offset="0.19" stop-color="#C29938"/>
<stop offset="0.27" stop-color="#B3862E"/>
<stop offset="0.33" stop-color="#AE802B"/>
<stop offset="0.34" stop-color="#B5882F"/>
<stop offset="0.42" stop-color="#E5C34E"/>
<stop offset="0.46" stop-color="#F8DA5B"/>
<stop offset="0.51" stop-color="#FAE682"/>
<stop offset="0.58" stop-color="#FDF9BD"/>
<stop offset="0.61" stop-color="#F7EFAF"/>
<stop offset="0.74" stop-color="#E5D384"/>
<stop offset="0.8" stop-color="#DEC874"/>
<stop offset="0.93" stop-color="#F3E9A6"/>
<stop offset="1" stop-color="#FDF9BD"/>
</linearGradient>
<linearGradient id="paint4_linear_350_116" x1="5.82528" y1="34.4412" x2="63.0412" y2="34.4412" gradientUnits="userSpaceOnUse">
<stop stop-color="#FFF5A8"/>
<stop offset="0.31" stop-color="#BD8100"/>
<stop offset="0.76" stop-color="#E0BE58"/>
<stop offset="1" stop-color="#F1DC83"/>
</linearGradient>
<radialGradient id="paint5_radial_350_116" cx="0" cy="0" r="1" gradientUnits="userSpaceOnUse" gradientTransform="translate(34.4384 34.4393) scale(26.7895 26.7895)">
<stop stop-color="#FFF5A8"/>
<stop offset="0.72" stop-color="#FFF5A8"/>
</radialGradient>
<linearGradient id="paint6_linear_350_116" x1="15.7038" y1="34.4378" x2="53.173" y2="34.4378" gradientUnits="userSpaceOnUse">
<stop stop-color="#FFF5A8"/>
<stop offset="0.31" stop-color="#BD8100"/>
<stop offset="0.76" stop-color="#E0BE58"/>
<stop offset="1" stop-color="#F1DC83"/>
</linearGradient>
<linearGradient id="paint7_linear_350_116" x1="19.7948" y1="23.7553" x2="48.9085" y2="45.3928" gradientUnits="userSpaceOnUse">
<stop stop-color="#FFF5A8"/>
<stop offset="0.31" stop-color="#BD8100"/>
<stop offset="0.76" stop-color="#E0BE58"/>
<stop offset="1" stop-color="#F1DC83"/>
</linearGradient>
<linearGradient id="paint8_linear_350_116" x1="40.9677" y1="57.417" x2="40.9677" y2="53.188" gradientUnits="userSpaceOnUse">
<stop stop-color="#F8DA5B"/>
<stop offset="0.09" stop-color="#DBB748"/>
<stop offset="0.19" stop-color="#C29938"/>
<stop offset="0.27" stop-color="#B3862E"/>
<stop offset="0.33" stop-color="#AE802B"/>
<stop offset="0.34" stop-color="#B5882F"/>
<stop offset="0.42" stop-color="#E5C34E"/>
<stop offset="0.46" stop-color="#F8DA5B"/>
<stop offset="0.51" stop-color="#FAE682"/>
<stop offset="0.58" stop-color="#FDF9BD"/>
<stop offset="0.61" stop-color="#F7EFAF"/>
<stop offset="0.74" stop-color="#E5D384"/>
<stop offset="0.8" stop-color="#DEC874"/>
<stop offset="0.93" stop-color="#F3E9A6"/>
<stop offset="1" stop-color="#FDF9BD"/>
</linearGradient>
<linearGradient id="paint9_linear_350_116" x1="27.9028" y1="57.417" x2="27.9028" y2="53.188" gradientUnits="userSpaceOnUse">
<stop stop-color="#F8DA5B"/>
<stop offset="0.09" stop-color="#DBB748"/>
<stop offset="0.19" stop-color="#C29938"/>
<stop offset="0.27" stop-color="#B3862E"/>
<stop offset="0.33" stop-color="#AE802B"/>
<stop offset="0.34" stop-color="#B5882F"/>
<stop offset="0.42" stop-color="#E5C34E"/>
<stop offset="0.46" stop-color="#F8DA5B"/>
<stop offset="0.51" stop-color="#FAE682"/>
<stop offset="0.58" stop-color="#FDF9BD"/>
<stop offset="0.61" stop-color="#F7EFAF"/>
<stop offset="0.74" stop-color="#E5D384"/>
<stop offset="0.8" stop-color="#DEC874"/>
<stop offset="0.93" stop-color="#F3E9A6"/>
<stop offset="1" stop-color="#FDF9BD"/>
</linearGradient>
<linearGradient id="paint10_linear_350_116" x1="34.4377" y1="59.6556" x2="34.4377" y2="53.9774" gradientUnits="userSpaceOnUse">
<stop stop-color="#F8DA5B"/>
<stop offset="0.09" stop-color="#DBB748"/>
<stop offset="0.19" stop-color="#C29938"/>
<stop offset="0.27" stop-color="#B3862E"/>
<stop offset="0.33" stop-color="#AE802B"/>
<stop offset="0.34" stop-color="#B5882F"/>
<stop offset="0.42" stop-color="#E5C34E"/>
<stop offset="0.46" stop-color="#F8DA5B"/>
<stop offset="0.51" stop-color="#FAE682"/>
<stop offset="0.58" stop-color="#FDF9BD"/>
<stop offset="0.61" stop-color="#F7EFAF"/>
<stop offset="0.74" stop-color="#E5D384"/>
<stop offset="0.8" stop-color="#DEC874"/>
<stop offset="0.93" stop-color="#F3E9A6"/>
<stop offset="1" stop-color="#FDF9BD"/>
</linearGradient>
<linearGradient id="paint11_linear_350_116" x1="40.9677" y1="15.5947" x2="40.9677" y2="11.3657" gradientUnits="userSpaceOnUse">
<stop stop-color="#F8DA5B"/>
<stop offset="0.09" stop-color="#DBB748"/>
<stop offset="0.19" stop-color="#C29938"/>
<stop offset="0.27" stop-color="#B3862E"/>
<stop offset="0.33" stop-color="#AE802B"/>
<stop offset="0.34" stop-color="#B5882F"/>
<stop offset="0.42" stop-color="#E5C34E"/>
<stop offset="0.46" stop-color="#F8DA5B"/>
<stop offset="0.51" stop-color="#FAE682"/>
<stop offset="0.58" stop-color="#FDF9BD"/>
<stop offset="0.61" stop-color="#F7EFAF"/>
<stop offset="0.74" stop-color="#E5D384"/>
<stop offset="0.8" stop-color="#DEC874"/>
<stop offset="0.93" stop-color="#F3E9A6"/>
<stop offset="1" stop-color="#FDF9BD"/>
</linearGradient>
<linearGradient id="paint12_linear_350_116" x1="27.9028" y1="15.5947" x2="27.9028" y2="11.3657" gradientUnits="userSpaceOnUse">
<stop stop-color="#F8DA5B"/>
<stop offset="0.09" stop-color="#DBB748"/>
<stop offset="0.19" stop-color="#C29938"/>
<stop offset="0.27" stop-color="#B3862E"/>
<stop offset="0.33" stop-color="#AE802B"/>
<stop offset="0.34" stop-color="#B5882F"/>
<stop offset="0.42" stop-color="#E5C34E"/>
<stop offset="0.46" stop-color="#F8DA5B"/>
<stop offset="0.51" stop-color="#FAE682"/>
<stop offset="0.58" stop-color="#FDF9BD"/>
<stop offset="0.61" stop-color="#F7EFAF"/>
<stop offset="0.74" stop-color="#E5D384"/>
<stop offset="0.8" stop-color="#DEC874"/>
<stop offset="0.93" stop-color="#F3E9A6"/>
<stop offset="1" stop-color="#FDF9BD"/>
</linearGradient>
<linearGradient id="paint13_linear_350_116" x1="34.4377" y1="14.6192" x2="34.4377" y2="8.94104" gradientUnits="userSpaceOnUse">
<stop stop-color="#F8DA5B"/>
<stop offset="0.09" stop-color="#DBB748"/>
<stop offset="0.19" stop-color="#C29938"/>
<stop offset="0.27" stop-color="#B3862E"/>
<stop offset="0.33" stop-color="#AE802B"/>
<stop offset="0.34" stop-color="#B5882F"/>
<stop offset="0.42" stop-color="#E5C34E"/>
<stop offset="0.46" stop-color="#F8DA5B"/>
<stop offset="0.51" stop-color="#FAE682"/>
<stop offset="0.58" stop-color="#FDF9BD"/>
<stop offset="0.61" stop-color="#F7EFAF"/>
<stop offset="0.74" stop-color="#E5D384"/>
<stop offset="0.8" stop-color="#DEC874"/>
<stop offset="0.93" stop-color="#F3E9A6"/>
<stop offset="1" stop-color="#FDF9BD"/>
</linearGradient>
<linearGradient id="paint14_linear_350_116" x1="20.86" y1="78.7483" x2="48.016" y2="51.5923" gradientUnits="userSpaceOnUse">
<stop stop-color="#BCBEC1"/>
<stop offset="0.41" stop-color="#EDEDEE"/>
<stop offset="0.75" stop-color="#BCBEC1"/>
<stop offset="0.95" stop-color="#838588"/>
</linearGradient>
<linearGradient id="paint15_linear_350_116" x1="21.266" y1="51.9024" x2="47.6044" y2="78.2407" gradientUnits="userSpaceOnUse">
<stop stop-color="#F8DA5B"/>
<stop offset="0.09" stop-color="#DBB748"/>
<stop offset="0.19" stop-color="#C29938"/>
<stop offset="0.27" stop-color="#B3862E"/>
<stop offset="0.33" stop-color="#AE802B"/>
<stop offset="0.34" stop-color="#B5882F"/>
<stop offset="0.42" stop-color="#E5C34E"/>
<stop offset="0.46" stop-color="#F8DA5B"/>
<stop offset="0.51" stop-color="#FAE682"/>
<stop offset="0.58" stop-color="#FDF9BD"/>
<stop offset="0.61" stop-color="#F7EFAF"/>
<stop offset="0.74" stop-color="#E5D384"/>
<stop offset="0.8" stop-color="#DEC874"/>
<stop offset="0.93" stop-color="#F3E9A6"/>
<stop offset="1" stop-color="#FDF9BD"/>
</linearGradient>
<linearGradient id="paint16_linear_350_116" x1="15.3848" y1="57.0618" x2="30.9815" y2="72.6641" gradientUnits="userSpaceOnUse">
<stop stop-color="#F8DA5B"/>
<stop offset="0.09" stop-color="#DBB748"/>
<stop offset="0.19" stop-color="#C29938"/>
<stop offset="0.27" stop-color="#B3862E"/>
<stop offset="0.33" stop-color="#AE802B"/>
<stop offset="0.34" stop-color="#B5882F"/>
<stop offset="0.42" stop-color="#E5C34E"/>
<stop offset="0.46" stop-color="#F8DA5B"/>
<stop offset="0.51" stop-color="#FAE682"/>
<stop offset="0.58" stop-color="#FDF9BD"/>
<stop offset="0.61" stop-color="#F7EFAF"/>
<stop offset="0.74" stop-color="#E5D384"/>
<stop offset="0.8" stop-color="#DEC874"/>
<stop offset="0.93" stop-color="#F3E9A6"/>
<stop offset="1" stop-color="#FDF9BD"/>
</linearGradient>
<linearGradient id="paint17_linear_350_116" x1="37.5841" y1="56.7573" x2="53.7954" y2="72.9686" gradientUnits="userSpaceOnUse">
<stop stop-color="#F8DA5B"/>
<stop offset="0.09" stop-color="#DBB748"/>
<stop offset="0.19" stop-color="#C29938"/>
<stop offset="0.27" stop-color="#B3862E"/>
<stop offset="0.33" stop-color="#AE802B"/>
<stop offset="0.34" stop-color="#B5882F"/>
<stop offset="0.42" stop-color="#E5C34E"/>
<stop offset="0.46" stop-color="#F8DA5B"/>
<stop offset="0.51" stop-color="#FAE682"/>
<stop offset="0.58" stop-color="#FDF9BD"/>
<stop offset="0.61" stop-color="#F7EFAF"/>
<stop offset="0.74" stop-color="#E5D384"/>
<stop offset="0.8" stop-color="#DEC874"/>
<stop offset="0.93" stop-color="#F3E9A6"/>
<stop offset="1" stop-color="#FDF9BD"/>
</linearGradient>
<linearGradient id="paint18_linear_350_116" x1="5.82528" y1="34.4412" x2="63.0412" y2="34.4412" gradientUnits="userSpaceOnUse">
<stop stop-color="#FFF5A8"/>
<stop offset="0.31" stop-color="#BD8100"/>
<stop offset="0.76" stop-color="#E0BE58"/>
<stop offset="1" stop-color="#F1DC83"/>
</linearGradient>
<radialGradient id="paint19_radial_350_116" cx="0" cy="0" r="1" gradientUnits="userSpaceOnUse" gradientTransform="translate(34.4384 34.4393) scale(26.7895 26.7895)">
<stop stop-color="#FFF5A8"/>
<stop offset="0.72" stop-color="#FFF5A8"/>
</radialGradient>
<linearGradient id="paint20_linear_350_116" x1="15.7038" y1="34.4378" x2="53.173" y2="34.4378" gradientUnits="userSpaceOnUse">
<stop stop-color="#FFF5A8"/>
<stop offset="0.31" stop-color="#BD8100"/>
<stop offset="0.76" stop-color="#E0BE58"/>
<stop offset="1" stop-color="#F1DC83"/>
</linearGradient>
<linearGradient id="paint21_linear_350_116" x1="19.7948" y1="23.7553" x2="48.9085" y2="45.3928" gradientUnits="userSpaceOnUse">
<stop stop-color="#FFF5A8"/>
<stop offset="0.31" stop-color="#BD8100"/>
<stop offset="0.76" stop-color="#E0BE58"/>
<stop offset="1" stop-color="#F1DC83"/>
</linearGradient>
<linearGradient id="paint22_linear_350_116" x1="40.9677" y1="57.417" x2="40.9677" y2="53.188" gradientUnits="userSpaceOnUse">
<stop stop-color="#F8DA5B"/>
<stop offset="0.09" stop-color="#DBB748"/>
<stop offset="0.19" stop-color="#C29938"/>
<stop offset="0.27" stop-color="#B3862E"/>
<stop offset="0.33" stop-color="#AE802B"/>
<stop offset="0.34" stop-color="#B5882F"/>
<stop offset="0.42" stop-color="#E5C34E"/>
<stop offset="0.46" stop-color="#F8DA5B"/>
<stop offset="0.51" stop-color="#FAE682"/>
<stop offset="0.58" stop-color="#FDF9BD"/>
<stop offset="0.61" stop-color="#F7EFAF"/>
<stop offset="0.74" stop-color="#E5D384"/>
<stop offset="0.8" stop-color="#DEC874"/>
<stop offset="0.93" stop-color="#F3E9A6"/>
<stop offset="1" stop-color="#FDF9BD"/>
</linearGradient>
<linearGradient id="paint23_linear_350_116" x1="27.9028" y1="57.417" x2="27.9028" y2="53.188" gradientUnits="userSpaceOnUse">
<stop stop-color="#F8DA5B"/>
<stop offset="0.09" stop-color="#DBB748"/>
<stop offset="0.19" stop-color="#C29938"/>
<stop offset="0.27" stop-color="#B3862E"/>
<stop offset="0.33" stop-color="#AE802B"/>
<stop offset="0.34" stop-color="#B5882F"/>
<stop offset="0.42" stop-color="#E5C34E"/>
<stop offset="0.46" stop-color="#F8DA5B"/>
<stop offset="0.51" stop-color="#FAE682"/>
<stop offset="0.58" stop-color="#FDF9BD"/>
<stop offset="0.61" stop-color="#F7EFAF"/>
<stop offset="0.74" stop-color="#E5D384"/>
<stop offset="0.8" stop-color="#DEC874"/>
<stop offset="0.93" stop-color="#F3E9A6"/>
<stop offset="1" stop-color="#FDF9BD"/>
</linearGradient>
<linearGradient id="paint24_linear_350_116" x1="34.4377" y1="59.6556" x2="34.4377" y2="53.9774" gradientUnits="userSpaceOnUse">
<stop stop-color="#F8DA5B"/>
<stop offset="0.09" stop-color="#DBB748"/>
<stop offset="0.19" stop-color="#C29938"/>
<stop offset="0.27" stop-color="#B3862E"/>
<stop offset="0.33" stop-color="#AE802B"/>
<stop offset="0.34" stop-color="#B5882F"/>
<stop offset="0.42" stop-color="#E5C34E"/>
<stop offset="0.46" stop-color="#F8DA5B"/>
<stop offset="0.51" stop-color="#FAE682"/>
<stop offset="0.58" stop-color="#FDF9BD"/>
<stop offset="0.61" stop-color="#F7EFAF"/>
<stop offset="0.74" stop-color="#E5D384"/>
<stop offset="0.8" stop-color="#DEC874"/>
<stop offset="0.93" stop-color="#F3E9A6"/>
<stop offset="1" stop-color="#FDF9BD"/>
</linearGradient>
<linearGradient id="paint25_linear_350_116" x1="40.9677" y1="15.5947" x2="40.9677" y2="11.3657" gradientUnits="userSpaceOnUse">
<stop stop-color="#F8DA5B"/>
<stop offset="0.09" stop-color="#DBB748"/>
<stop offset="0.19" stop-color="#C29938"/>
<stop offset="0.27" stop-color="#B3862E"/>
<stop offset="0.33" stop-color="#AE802B"/>
<stop offset="0.34" stop-color="#B5882F"/>
<stop offset="0.42" stop-color="#E5C34E"/>
<stop offset="0.46" stop-color="#F8DA5B"/>
<stop offset="0.51" stop-color="#FAE682"/>
<stop offset="0.58" stop-color="#FDF9BD"/>
<stop offset="0.61" stop-color="#F7EFAF"/>
<stop offset="0.74" stop-color="#E5D384"/>
<stop offset="0.8" stop-color="#DEC874"/>
<stop offset="0.93" stop-color="#F3E9A6"/>
<stop offset="1" stop-color="#FDF9BD"/>
</linearGradient>
<linearGradient id="paint26_linear_350_116" x1="27.9028" y1="15.5947" x2="27.9028" y2="11.3657" gradientUnits="userSpaceOnUse">
<stop stop-color="#F8DA5B"/>
<stop offset="0.09" stop-color="#DBB748"/>
<stop offset="0.19" stop-color="#C29938"/>
<stop offset="0.27" stop-color="#B3862E"/>
<stop offset="0.33" stop-color="#AE802B"/>
<stop offset="0.34" stop-color="#B5882F"/>
<stop offset="0.42" stop-color="#E5C34E"/>
<stop offset="0.46" stop-color="#F8DA5B"/>
<stop offset="0.51" stop-color="#FAE682"/>
<stop offset="0.58" stop-color="#FDF9BD"/>
<stop offset="0.61" stop-color="#F7EFAF"/>
<stop offset="0.74" stop-color="#E5D384"/>
<stop offset="0.8" stop-color="#DEC874"/>
<stop offset="0.93" stop-color="#F3E9A6"/>
<stop offset="1" stop-color="#FDF9BD"/>
</linearGradient>
<linearGradient id="paint27_linear_350_116" x1="34.4377" y1="14.6192" x2="34.4377" y2="8.94104" gradientUnits="userSpaceOnUse">
<stop stop-color="#F8DA5B"/>
<stop offset="0.09" stop-color="#DBB748"/>
<stop offset="0.19" stop-color="#C29938"/>
<stop offset="0.27" stop-color="#B3862E"/>
<stop offset="0.33" stop-color="#AE802B"/>
<stop offset="0.34" stop-color="#B5882F"/>
<stop offset="0.42" stop-color="#E5C34E"/>
<stop offset="0.46" stop-color="#F8DA5B"/>
<stop offset="0.51" stop-color="#FAE682"/>
<stop offset="0.58" stop-color="#FDF9BD"/>
<stop offset="0.61" stop-color="#F7EFAF"/>
<stop offset="0.74" stop-color="#E5D384"/>
<stop offset="0.8" stop-color="#DEC874"/>
<stop offset="0.93" stop-color="#F3E9A6"/>
<stop offset="1" stop-color="#FDF9BD"/>
</linearGradient>
<clipPath id="clip0_350_116">
<rect width="18" height="22" fill="white" transform="translate(25 23)"/>
</clipPath>
<clipPath id="clip1_350_116">
<rect width="18" height="22" fill="white" transform="translate(25 23)"/>
</clipPath>
</defs>
</svg>
